<svg width="35" height="35" viewBox="0 0 35 35" fill="none" xmlns="http://www.w3.org/2000/svg">
<g clip-path="url(#clip0_79_4775)">
<g clip-path="url(#clip1_79_4775)">
<g clip-path="url(#clip2_79_4775)">
<path d="M7.59397 27.673H30.4813C30.5513 27.673 30.6192 27.663 30.6845 27.6474C30.6897 27.6474 30.694 27.6483 30.6992 27.6483C31.1878 27.6483 31.5847 27.2518 31.5847 26.7629V1.7356C31.5848 1.2468 31.1878 0.850098 30.6992 0.850098H30.483H9.01018H7.59521C5.23826 0.850098 3.3211 2.7677 3.3211 5.12399C3.3211 5.15559 3.32732 5.18559 3.33039 5.21609C3.32732 7.39272 3.30032 27.3932 3.32732 30.0225C3.32563 30.0739 3.31934 30.1241 3.31934 30.1761C3.31934 32.4418 5.09342 34.2966 7.32491 34.4368C7.36968 34.4437 7.41357 34.4502 7.46003 34.4502H30.6991C31.1877 34.4502 31.5846 34.0537 31.5846 33.5647V30.2315C31.5846 29.7429 31.1876 29.346 30.6991 29.346C30.2106 29.346 29.8136 29.7429 29.8136 30.2315V32.6792H7.59397C6.24834 32.6792 5.14989 31.6109 5.09591 30.2786C5.09722 30.2549 5.10154 30.2324 5.1011 30.2082C5.10022 30.1693 5.09891 30.1088 5.09803 30.0283C5.17542 28.7171 6.2637 27.673 7.59397 27.673ZM8.19776 5.12399C8.19776 4.63519 8.59446 4.23849 9.08326 4.23849C9.57206 4.23849 9.96877 4.63519 9.96877 5.12399V23.1109C9.96877 23.5995 9.57206 23.9964 9.08326 23.9964C8.59446 23.9964 8.19776 23.5994 8.19776 23.1109V5.12399Z" fill="white"/>
</g>
</g>
</g>
<defs>
<clipPath id="clip0_79_4775">
<rect width="33.6" height="33.6" fill="white" transform="translate(0.649902 0.850098)"/>
</clipPath>
<clipPath id="clip1_79_4775">
<rect width="33.6" height="33.6" fill="white" transform="translate(0.649902 0.850098)"/>
</clipPath>
<clipPath id="clip2_79_4775">
<rect width="28.2692" height="33.6001" fill="white" transform="translate(3.31543 0.850098)"/>
</clipPath>
</defs>
</svg>
